<?xml version="1.0" encoding="UTF-8" standalone="no"?>
<svg
   xmlns:dc="http://purl.org/dc/elements/1.1/"
   xmlns:cc="http://creativecommons.org/ns#"
   xmlns:rdf="http://www.w3.org/1999/02/22-rdf-syntax-ns#"
   xmlns:svg="http://www.w3.org/2000/svg"
   xmlns="http://www.w3.org/2000/svg"
   xmlns:sodipodi="http://sodipodi.sourceforge.net/DTD/sodipodi-0.dtd"
   xmlns:inkscape="http://www.inkscape.org/namespaces/inkscape"
   inkscape:version="1.0 (4035a4fb49, 2020-05-01)"
   sodipodi:docname="logo-bookmark-footer.svg"
   id="svg12"
   version="1.1"
   height="25"
   width="148">
  <metadata
     id="metadata18">
    <rdf:RDF>
      <cc:Work
         rdf:about="">
        <dc:format>image/svg+xml</dc:format>
        <dc:type
           rdf:resource="http://purl.org/dc/dcmitype/StillImage" />
        <dc:title></dc:title>
      </cc:Work>
    </rdf:RDF>
  </metadata>
  <defs
     id="defs16" />
  <sodipodi:namedview
     inkscape:current-layer="svg12"
     inkscape:window-maximized="1"
     inkscape:window-y="-8"
     inkscape:window-x="-8"
     inkscape:cy="12.5"
     inkscape:cx="74"
     inkscape:zoom="7.9459459"
     showgrid="false"
     id="namedview14"
     inkscape:window-height="1052"
     inkscape:window-width="1920"
     inkscape:pageshadow="2"
     inkscape:pageopacity="0"
     guidetolerance="10"
     gridtolerance="10"
     objecttolerance="10"
     borderopacity="1"
     bordercolor="#666666"
     pagecolor="#ffffff" />
  <g
     id="g10"
     fill-rule="evenodd"
     fill="#FFF">
    <path
       id="path2"
       fill-rule="nonzero"
       fill="#242A45"
       d="M37 6.299h5.227c.746 0 1.434.155 2.062.466.629.311 1.123.735 1.484 1.27s.542 1.12.542 1.754c0 .672-.165 1.254-.495 1.746-.33.491-.762.868-1.297 1.129v.15c.697.248 1.25.643 1.661 1.185.41.541.616 1.191.616 1.95 0 .735-.196 1.385-.588 1.951a3.817 3.817 0 0 1-1.587 1.307c-.665.305-1.403.457-2.212.457H37V6.299zm5.04 5.45c.548 0 .986-.152 1.316-.457.33-.305.495-.688.495-1.148 0-.448-.159-.824-.476-1.13-.318-.304-.738-.457-1.26-.457H39.52v3.192h2.52zm.28 5.619c.61 0 1.086-.159 1.428-.476.342-.317.513-.731.513-1.241 0-.51-.174-.927-.522-1.251-.349-.324-.847-.485-1.494-.485H39.52v3.453h2.8zm12.927 2.595c-1.307 0-2.492-.308-3.556-.924a6.711 6.711 0 0 1-2.511-2.53c-.61-1.07-.915-2.246-.915-3.528 0-1.281.305-2.457.915-3.528a6.711 6.711 0 0 1 2.51-2.529C52.756 6.308 53.94 6 55.248 6c1.306 0 2.492.308 3.556.924a6.711 6.711 0 0 1 2.51 2.53c.61 1.07.915 2.246.915 3.527 0 1.282-.305 2.458-.915 3.528a6.711 6.711 0 0 1-2.51 2.53c-1.064.616-2.25.924-3.556.924zm0-2.39a4.52 4.52 0 0 0 2.258-.578 4.177 4.177 0 0 0 1.615-1.624c.392-.697.588-1.494.588-2.39 0-.896-.196-1.692-.588-2.389a4.177 4.177 0 0 0-1.615-1.624 4.52 4.52 0 0 0-2.258-.579 4.47 4.47 0 0 0-2.25.579 4.195 4.195 0 0 0-1.605 1.624c-.392.697-.588 1.493-.588 2.39 0 .895.196 1.692.588 2.389a4.195 4.195 0 0 0 1.605 1.624 4.47 4.47 0 0 0 2.25.578zm15.353 2.39c-1.307 0-2.492-.308-3.556-.924a6.711 6.711 0 0 1-2.51-2.53c-.61-1.07-.915-2.246-.915-3.528 0-1.281.305-2.457.914-3.528a6.711 6.711 0 0 1 2.511-2.529C68.108 6.308 69.294 6 70.6 6c1.307 0 2.492.308 3.556.924a6.711 6.711 0 0 1 2.51 2.53c.61 1.07.915 2.246.915 3.527 0 1.282-.305 2.458-.914 3.528a6.711 6.711 0 0 1-2.511 2.53c-1.064.616-2.25.924-3.556.924zm0-2.39a4.52 4.52 0 0 0 2.259-.578 4.177 4.177 0 0 0 1.614-1.624c.392-.697.588-1.494.588-2.39 0-.896-.196-1.692-.588-2.389a4.177 4.177 0 0 0-1.614-1.624 4.52 4.52 0 0 0-2.259-.579 4.47 4.47 0 0 0-2.25.579 4.195 4.195 0 0 0-1.605 1.624c-.392.697-.588 1.493-.588 2.39 0 .895.196 1.692.588 2.389a4.195 4.195 0 0 0 1.606 1.624 4.47 4.47 0 0 0 2.249.578zM79.83 6.3h2.52v5.73h.15l4.89-5.73h3.043v.149L85.6 11.973l5.338 7.542v.149h-3.08l-3.994-5.693-1.512 1.773v3.92h-2.52V6.299zM93.779 6h3.248l3.546 9.39h.15L104.268 6h3.267v13.365h-2.501v-6.589l.15-2.221h-.15l-3.398 8.81h-1.96l-3.416-8.81h-.149l.15 2.221v6.59h-2.483V6zm20.8 0h2.894l5.021 13.365h-2.781l-1.12-3.192h-5.115l-1.12 3.192h-2.781L114.579 6zm3.193 7.859l-1.176-3.36-.486-1.606h-.149l-.485 1.606-1.195 3.36h3.49zM124.553 6h4.872c.871 0 1.646.18 2.324.541.678.361 1.204.862 1.577 1.503.374.64.56 1.366.56 2.175 0 .858-.27 1.62-.812 2.286a4.617 4.617 0 0 1-2.044 1.447l-.018.13 3.584 5.134v.15h-2.894l-3.453-5.022h-1.176v5.021h-2.52V6zm4.853 6.03c.573 0 1.04-.175 1.4-.523.361-.349.542-.79.542-1.326 0-.51-.172-.945-.514-1.306-.342-.361-.806-.542-1.39-.542h-2.371v3.696h2.333zm7.23-6.03h2.52v5.73h.15l4.89-5.73h3.043v.15l-4.835 5.525 5.34 7.541v.15h-3.08l-3.996-5.694-1.512 1.773v3.92h-2.52V6z" />
    <g
       id="g8">
      <circle
         id="circle4"
         r="12.5"
         cy="12.5"
         cx="12.5"
         fill="#5267DF" />
      <path
         id="path6"
         fill="#FFF"
         d="M9 9v10l3.54-3.44L16.078 19V9a2 2 0 0 0-2-2H11a2 2 0 0 0-2 2z" />
    </g>
  </g>
  <path
     id="path32"
     d="M 37,12.938191 V 6.3139677 l 3.114796,0.049026 c 3.607658,0.056784 3.907146,0.1237509 4.993442,1.1165646 0.797715,0.7290662 1.100281,1.3940685 1.095433,2.4076241 -0.0045,0.9392976 -0.487401,1.8747856 -1.243637,2.4091676 -0.294175,0.207874 -0.534864,0.409623 -0.534864,0.44833 0,0.03871 0.259103,0.207832 0.575784,0.375831 1.407221,0.746529 2.023917,2.324312 1.539912,3.939779 -0.210604,0.70293 -1.111471,1.653158 -1.964347,2.071978 l -0.717675,0.352426 -3.429422,0.03886 L 37,19.562414 Z m 6.356729,4.28877 c 1.24617,-0.520683 1.262985,-2.54546 0.02601,-3.132442 -0.346248,-0.164305 -0.816341,-0.210165 -2.154314,-0.210165 h -1.711422 v 1.761905 1.761904 h 1.703022 c 1.197461,0 1.831763,-0.05379 2.1367,-0.181202 z m -0.31969,-5.643065 c 0.426234,-0.215677 0.88473,-0.93097 0.88473,-1.380256 0,-0.6428938 -0.371898,-1.2369047 -0.934331,-1.4923511 C 42.582913,8.5275607 42.161925,8.4777328 40.995748,8.475553 l -1.478741,-0.00276 v 1.636055 1.636054 l 1.604592,-0.0019 c 1.030322,-0.0012 1.715842,-0.05815 1.91544,-0.159147 z"
     style="fill:#ffffff;stroke-width:0.12585" />
  <path
     id="path34"
     d="m 53.738095,19.728013 c -1.983325,-0.429496 -3.794872,-1.842359 -4.656404,-3.631625 -1.128166,-2.343023 -0.962031,-4.882711 0.459364,-7.0222643 1.264528,-1.9034305 3.341572,-2.992491 5.707244,-2.992491 4.011434,0 7.130243,3.3079108 6.882043,7.2993193 -0.195661,3.146498 -2.389955,5.711963 -5.434764,6.354068 -1.077328,0.227193 -1.884834,0.225279 -2.957483,-0.007 z m 2.710804,-2.26202 c 2.442154,-0.631217 3.78631,-3.073601 3.158793,-5.739651 -0.324978,-1.380695 -1.138086,-2.3663339 -2.465895,-2.9891271 -0.598624,-0.2807778 -0.868394,-0.327351 -1.896144,-0.327351 -1.100265,0 -1.266915,0.033817 -2.038443,0.4136384 -1.008529,0.4964968 -1.738231,1.2746587 -2.132044,2.2736317 -0.400395,1.015672 -0.399798,2.837237 0.0012,3.731097 0.435944,0.971702 0.86602,1.51946 1.572941,2.003346 1.123111,0.768768 2.43335,0.987539 3.799569,0.634416 z"
     style="fill:#ffffff;stroke-width:0.12585" />
  <path
     id="path36"
     d="m 69.091837,19.728013 c -1.983326,-0.429496 -3.794873,-1.842359 -4.656404,-3.631625 -1.128166,-2.343023 -0.962032,-4.882711 0.459363,-7.0222643 2.867731,-4.316649 9.516634,-3.8964945 11.841416,0.7482775 2.055834,4.1074308 -0.246194,8.9761428 -4.686892,9.9126188 -1.077329,0.227193 -1.884834,0.225279 -2.957483,-0.007 z m 2.710804,-2.26202 c 2.442154,-0.631217 3.786309,-3.073601 3.158793,-5.739651 -0.324979,-1.380695 -1.138086,-2.3663339 -2.465895,-2.9891271 -0.598625,-0.2807778 -0.868395,-0.327351 -1.896144,-0.327351 -1.100266,0 -1.266916,0.033817 -2.038444,0.4136384 -1.651392,0.8129776 -2.410621,2.1273697 -2.414425,4.1798987 -0.0019,1.030383 0.04384,1.295313 0.331095,1.917389 0.650615,1.40896 1.515358,2.173535 2.870058,2.537603 0.901781,0.242349 1.539092,0.244322 2.454962,0.0076 z"
     style="fill:#ffffff;stroke-width:0.12585" />
  <path
     id="path38"
     d="M 79.914966,12.940476 V 6.3333333 h 1.195578 1.195578 v 2.8945579 c 0,1.5920068 0.04843,2.8945578 0.107619,2.8945578 0.05919,0 1.219818,-1.302551 2.579173,-2.8945578 L 87.46447,6.3333333 h 1.463447 c 1.373066,0 1.45278,0.01353 1.290724,0.2190836 -0.095,0.1204959 -1.181494,1.3729753 -2.414436,2.7832875 -1.339279,1.5319466 -2.214889,2.6341076 -2.175079,2.7378496 0.0568,0.148027 3.489515,5.043403 4.82175,6.876276 l 0.434507,0.597789 h -1.507381 -1.50738 l -1.916104,-2.737245 c -1.053857,-1.505485 -1.959407,-2.784379 -2.012334,-2.841988 -0.05293,-0.05761 -0.442691,0.306853 -0.866145,0.809916 l -0.769917,0.914661 v 1.927328 1.927328 h -1.195578 -1.195578 z"
     style="fill:#ffffff;stroke-width:0.12585" />
  <path
     id="path40"
     d="M 93.884354,12.688776 V 6.0816327 h 1.550785 1.550785 L 98.73871,10.73778 c 0.964033,2.560882 1.81918,4.65629 1.90033,4.656463 0.15499,3.27e-4 0.25361,-0.242764 2.34836,-5.7888008 l 1.30719,-3.4608844 1.5908,-0.035223 1.5908,-0.035223 v 6.6109022 6.610903 h -1.21153 -1.21153 l 0.0541,-4.404762 c 0.0298,-2.422619 0.0145,-4.404761 -0.034,-4.404761 -0.0485,0 -0.30098,0.552168 -0.56114,1.22704 -0.26017,0.674873 -1.02036,2.642858 -1.68931,4.3733 l -1.21627,3.146258 -0.93912,0.03626 -0.93913,0.03626 -1.694947,-4.368379 c -0.932221,-2.402608 -1.75158,-4.386951 -1.820798,-4.409649 -0.0828,-0.02715 -0.112102,1.465507 -0.08566,4.363579 l 0.04019,4.404849 h -1.141382 -1.141382 z"
     style="fill:#ffffff;stroke-width:0.12585" />
  <path
     id="path42"
     d="m 109.74379,19.201531 c 10e-4,-0.05191 1.09517,-3.01097 2.4309,-6.575681 l 2.42861,-6.4812922 h 1.42665 1.42665 l 2.43344,6.4812922 c 1.33839,3.564711 2.43412,6.523767 2.43496,6.575681 8.4e-4,0.05191 -0.59311,0.09439 -1.3199,0.09439 -0.73609,0 -1.32143,-0.05214 -1.32143,-0.117705 0,-0.06474 -0.23242,-0.772646 -0.51649,-1.573129 l -0.5165,-1.455424 h -2.61667 -2.61666 l -0.5165,1.455424 c -0.28407,0.800483 -0.5165,1.508392 -0.5165,1.573129 0,0.06557 -0.58533,0.117705 -1.32142,0.117705 -0.72679,0 -1.3204,-0.04247 -1.31914,-0.09439 z m 8.05213,-5.376676 c 0,-0.267315 -1.66403,-4.9115897 -1.7598,-4.9115897 -0.10303,0 -1.75788,4.5787687 -1.76254,4.8767007 -8.1e-4,0.05191 0.79139,0.09439 1.76043,0.09439 0.96905,0 1.76191,-0.02678 1.76191,-0.0595 z"
     style="fill:#ffffff;stroke-width:0.12585" />
  <path
     id="path44"
     d="M 124.59184,12.680673 V 6.0654271 l 3.05512,0.039565 3.05512,0.039565 0.84096,0.4142992 c 0.98954,0.4874996 1.62377,1.1683406 1.98316,2.1289054 0.33883,0.9055834 0.33518,2.1700133 -0.008,2.9312853 -0.32945,0.729862 -1.15162,1.575125 -1.90976,1.963395 -0.32878,0.168383 -0.59779,0.377964 -0.59779,0.465735 0,0.08777 0.43224,0.780567 0.96052,1.539546 0.52828,0.75898 1.32536,1.903815 1.77129,2.544079 l 0.81078,1.164115 -1.42521,-0.0058 -1.4252,-0.0058 -1.69898,-2.507691 -1.69898,-2.507692 -0.66071,-0.0035 -0.66072,-0.0035 v 2.517007 2.517006 h -1.19558 -1.19557 z m 5.91496,-0.877131 c 1.16613,-0.677695 1.1612,-2.5763372 -0.008,-3.2629671 -0.33875,-0.1988565 -0.7213,-0.2568541 -1.96791,-0.2983558 l -1.54742,-0.051516 v 1.9788139 1.978814 l 1.54167,-0.0444 c 1.26843,-0.03653 1.61974,-0.08977 1.98214,-0.300385 z"
     style="fill:#ffffff;stroke-width:0.12585" />
  <path
     id="path46"
     d="M 136.67347,12.688776 V 6.0816327 h 1.19558 1.19558 v 2.8316326 c 0,2.2563657 0.0336,2.8316327 0.16552,2.8316327 0.091,0 1.25248,-1.274235 2.58097,-2.8316327 l 2.41544,-2.8316326 h 1.46166 c 1.37136,0 1.45098,0.013534 1.28892,0.2190835 -0.095,0.120496 -1.18073,1.3721096 -2.41274,2.7813639 l -2.24003,2.5622799 0.21774,0.333432 c 0.11976,0.183388 1.31183,1.875756 2.64904,3.760819 1.33722,1.885062 2.4313,3.456618 2.4313,3.492347 0,0.03573 -0.66543,0.0623 -1.47874,0.05906 l -1.47874,-0.0059 -1.95068,-2.821814 c -1.07288,-1.551998 -1.98721,-2.823576 -2.03186,-2.825729 -0.0447,-0.0022 -0.42692,0.403788 -0.84949,0.902091 l -0.76831,0.906006 v 1.925627 1.925626 h -1.19558 -1.19558 z"
     style="fill:#ffffff;stroke-width:0.12585" />
</svg>
